<svg height="511pt" viewBox="-3 0 511 511.99972" width="511pt" xmlns="http://www.w3.org/2000/svg"><path d="m444.339844 176.496094s43.785156-141.4375-88.289063-140.582032c-32.367187.207032-50.136719 19.769532-57.929687-6.167968-8.269532-27.503906-47.046875-25.085938-66.394532-16.222656-33.074218 15.15625-55.871093 55.824218-26.082031 162.972656zm0 0" fill="#d47a3d"/><path d="m275.269531 29.746094c5.046875 16.789062 14.273438 14.515625 28.933594 10.765625-2.472656-2.054688-4.488281-5.453125-6.082031-10.765625-6.203125-20.636719-29.582032-24.425782-49.042969-21.289063 11.96875 2.230469 22.359375 8.539063 26.191406 21.289063zm0 0" fill="#b7692e"/><path d="m356.050781 35.914062c-2.988281.019532-5.851562.203126-8.59375.503907 114.5625 9.152343 74.035157 140.078125 74.035157 140.078125h22.847656s43.785156-141.4375-88.289063-140.582032zm0 0" fill="#b7692e"/><path d="m497.4375 499.980469-.058594-20.472657c-.246094-81.816406-67.390625-148.558593-149.207031-148.3125l-51.050781.152344c-81.820313.246094-148.5625 67.386719-148.316406 149.203125l.058593 19.429688zm0 0" fill="#f0bca6"/><path d="m497.378906 479.507812c-.246094-81.816406-67.390625-148.558593-149.207031-148.3125l-18.511719.054688c79.839844 2.078125 144.628906 67.890625 144.867188 148.257812l.0625 20.472657h22.847656zm0 0" fill="#e4aa9b"/><path d="m403.511719 499.980469c-55.507813-16.171875-107.761719-75.832031-107.921875-129.109375-.039063-13.671875 1.730468-26.921875 5.070312-39.535156l-3.542968.011718c-81.816407.246094-148.558594 67.386719-148.3125 149.207032l.058593 19.425781zm0 0" fill="#fff4f1"/><path d="m245.261719 226.867188c-.066407-22.746094-18.5625-41.128907-41.304688-41.058594-22.746093.066406-41.128906 18.5625-41.058593 41.304687.066406 22.746094 18.558593 41.128907 41.304687 41.058594 22.746094-.066406 41.128906-18.558594 41.058594-41.304687zm0 0" fill="#f0bca6"/><path d="m488.128906 226.0625c-.066406-22.742188-18.558594-41.125-41.304687-41.058594-22.746094.070313-41.128907 18.5625-41.058594 41.308594.066406 22.742188 18.5625 41.125 41.304687 41.058594 22.746094-.070313 41.128907-18.5625 41.058594-41.308594zm0 0" fill="#f0bca6"/><path d="m242.652344 137.636719c-20.90625 0-37.839844 16.976562-37.789063 37.882812l.222657 87.382813c.195312 66.039062 54.390624 119.910156 120.429687 119.710937s119.910156-54.390625 119.710937-120.429687l-.21875-86.855469c-.050781-20.832031-16.953124-37.695313-37.789062-37.695313h-164.566406zm0 0" fill="#f0bca6"/><path d="m445.011719 175.328125c-.054688-20.832031-16.957031-37.691406-37.789063-37.691406h-22.847656c20.832031 0 37.734375 16.859375 37.789062 37.691406l.21875 86.855469c.183594 62.316406-47.777343 114.078125-108.671874 119.882812 3.886718.371094 7.824218.558594 11.808593.546875 66.039063-.195312 119.910157-54.390625 119.710938-120.429687zm0 0" fill="#e4aa9b"/><path d="m295.179688 236.457031c-.019532-6.640625-5.417969-12.007812-12.058594-11.984375-6.640625.019532-12.003906 5.417969-11.984375 12.054688.019531 6.640625 5.417969 12.007812 12.058593 11.984375 6.636719-.019531 12.003907-5.417969 11.984376-12.054688zm0 0"/><path d="m380.09375 236.199219c-.019531-6.636719-5.417969-12.003907-12.054688-11.984375-6.640624.019531-12.007812 5.417968-11.984374 12.058594.019531 6.636718 5.417968 12.003906 12.054687 11.984374 6.640625-.019531 12.003906-5.417968 11.984375-12.058593zm0 0"/><g fill="#00bf9e"><path d="m237.992188 122.625c-1.234376-17.445312-10.90625-30.96875-21.609376-30.214844-10.703124.753906-18.382812 15.507813-17.152343 32.949219s10.90625 30.96875 21.609375 30.214844c10.703125-.757813 18.382812-15.507813 17.152344-32.949219zm0 0"/><path d="m275.433594 105.765625c-1.230469-17.441406-10.90625-30.96875-21.609375-30.214844-10.703125.753907-18.378907 15.507813-17.148438 32.949219s10.90625 30.96875 21.609375 30.214844c10.699219-.757813 18.378906-15.507813 17.148438-32.949219zm0 0"/><path d="m312.878906 88.90625c-1.230468-17.445312-10.90625-30.972656-21.609375-30.214844-10.703125.753906-18.382812 15.507813-17.148437 32.949219 1.230468 17.441406 10.902344 30.96875 21.605468 30.214844 10.703126-.757813 18.382813-15.507813 17.152344-32.949219zm0 0"/><path d="m420.300781 92.414062c-10.703125-.753906-20.378906 12.773438-21.609375 30.214844-1.230468 17.441406 6.449219 32.191406 17.152344 32.949219 10.703125.753906 20.375-12.773437 21.605469-30.214844 1.234375-17.441406-6.445313-32.195312-17.148438-32.949219zm0 0"/><path d="m382.855469 75.554688c-10.699219-.757813-20.375 12.769531-21.605469 30.214843-1.230469 17.441407 6.445312 32.191407 17.148438 32.949219 10.703124.753906 20.378906-12.773438 21.609374-30.214844 1.230469-17.441406-6.449218-32.195312-17.152343-32.949218zm0 0"/><path d="m345.414062 58.691406c-10.703124-.753906-20.375 12.773438-21.609374 30.214844-1.230469 17.441406 6.449218 32.195312 17.152343 32.949219 10.703125.757812 20.378907-12.769531 21.609375-30.214844 1.230469-17.441406-6.449218-32.191406-17.152344-32.949219zm0 0"/></g><path d="m370.109375 144c.253906-2.089844.398437-4.210938.398437-6.367188 0-28.804687-23.351562-52.160156-52.160156-52.160156s-52.160156 23.355469-52.160156 52.160156c0 2.15625.144531 4.277344.402344 6.367188zm0 0" fill="#f9cd45"/><path d="m195.78125 133.367188c2.242188 13.027343 5.480469 27.351562 9.867188 43.128906h238.691406s7.300781-19.753906 6.949218-43.128906zm0 0" fill="#ecedef"/><path d="m57.964844 292.109375h161.101562v29.183594h-161.101562zm0 0" fill="#f9cd45"/><path d="m258.914062 367.925781c-3.378906-33.8125-11.699218-67.820312-26.304687-99.394531-3.242187-7.011719-12.050781-11.117188-20.851563-9.335938-9.679687 1.957032-15.683593 10.296876-13.402343 18.625 10.328125 37.753907 16.429687 77.777344 9.15625 116.421876-2.757813 14.652343-9.5625 29.429687-22.914063 38.839843-12.75 8.988281-28.015625 10.605469-43.886718 10.792969-15.875-.1875-31.140626-1.804688-43.890626-10.792969-13.347656-9.410156-20.15625-24.1875-22.914062-38.839843-7.269531-38.644532-1.167969-78.667969 9.160156-116.421876 2.277344-8.328124-3.726562-16.667968-13.40625-18.625-8.800781-1.78125-17.609375 2.324219-20.851562 9.335938-14.605469 31.574219-22.925782 65.582031-26.304688 99.394531-3.628906 36.3125-2.796875 77.609375 27.886719 105.972657 11.277344 10.421874 25.230469 17.59375 39.625 22.679687 13.316406 4.707031 94.277344 24.054687 141.011719-22.679687 29.546875-29.546876 31.515625-69.660157 27.886718-105.972657zm0 0" fill="#d47a3d"/><path d="m60.21875 277.820312c-10.328125 37.753907-16.429688 77.777344-9.160156 116.421876 2.757812 14.652343 9.566406 29.429687 22.914062 38.839843 12.75 8.988281 28.015625 10.605469 43.890625 10.792969 3.851563-.042969 7.667969-.179688 11.421875-.476562-11.710937-.933594-22.808594-3.511719-32.464844-10.316407-13.347656-9.410156-20.152343-24.1875-22.910156-38.84375-7.273437-38.640625-1.171875-78.664062 9.15625-116.417969 2.277344-8.328124-3.726562-16.667968-13.40625-18.625-5.679687-1.152343-11.359375.164063-15.546875 3.121094 5.128907 3.632813 7.726563 9.566406 6.105469 15.503906zm0 0" fill="#b7692e"/><path d="m258.914062 367.925781c-3.378906-33.8125-11.699218-67.820312-26.304687-99.394531-3.242187-7.011719-12.050781-11.117188-20.851563-9.335938-2.777343.5625-5.234374 1.660157-7.296874 3.121094 2.296874 1.621094 4.152343 3.730469 5.300781 6.214844 14.605469 31.574219 22.925781 65.582031 26.304687 99.394531 3.628906 36.3125 1.660156 76.425781-27.886718 105.972657-21.015626 21.015624-48.953126 28.664062-74.546876 30.296874 30.460938 1.828126 69.863282-2.765624 97.394532-30.296874 29.546875-29.546876 31.515625-69.660157 27.886718-105.972657zm0 0" fill="#b7692e"/><path d="m78.726562 424.042969h-34.269531c-20.078125 0-36.507812-16.425781-36.507812-36.503907 0-20.078124 16.429687-36.507812 36.507812-36.507812h34.269531c20.078126 0 36.503907 16.429688 36.503907 36.507812.003906 20.078126-16.425781 36.503907-36.503907 36.503907zm0 0" fill="#f0bca6"/><path d="m504.828125 479.488281c-.050781-16.292969-2.625-32.363281-7.660156-47.761719-1.277344-3.910156-5.484375-6.046874-9.398438-4.765624-3.910156 1.277343-6.046875 5.484374-4.765625 9.394531 4.546875 13.917969 6.878906 28.445312 6.921875 43.175781l.039063 13h-85.351563c-46.714843-14.074219-89.878906-59.949219-99.550781-104.0625 6.605469 1.058594 13.308594 1.597656 20.085938 1.597656h.390624c32.929688-.101562 63.992188-12.726562 87.808594-35.613281 23.796875 12.34375 43.492188 31.015625 57.171875 54.261719 1.390625 2.359375 3.875 3.675781 6.429688 3.675781 1.28125 0 2.585937-.332031 3.773437-1.03125 3.542969-2.085937 4.726563-6.65625 2.640625-10.199219-14.414062-24.5-34.890625-44.375-59.570312-57.992187 16.171875-19.679688 25.964843-43.398438 28.324219-68.621094 24.457031-2.597656 43.535156-23.386719 43.460937-48.503906-.074219-24.898438-18.949219-45.421875-43.109375-48.164063l-.007812-2.203125c2.152343-6.902343 6.5625-23.457031 6.277343-42.417969-.003906-.171874-.019531-.335937-.035156-.5.75-22.382812-2.691406-48.890624-18.203125-69.785156-17-22.90625-45.007812-34.511718-83.265625-34.511718-.40625 0-.820313 0-1.230469.003906-12.230468.078125-22.410156 2.683594-30.59375 4.773437-6.277344 1.609375-11.699218 2.992188-14.78125 2.328125-.953125-.207031-3.1875-.691406-5.375-7.960937-3.117187-10.378907-10.148437-18.300781-20.335937-22.90625-17.917969-8.101563-41.738281-4.6132815-56.292969 2.050781-16.746094 7.671875-28.902344 20.355469-36.132812 37.695312-1.585938 3.796876.210937 8.160157 4.007812 9.742188 3.796875 1.585938 8.160156-.210938 9.746094-4.007812 5.820312-13.960938 15.171875-23.734376 28.585937-29.878907 11.660157-5.34375 31.023438-7.867187 43.949219-2.023437 6.316406 2.855468 10.308594 7.308594 12.203125 13.613281 7.125 23.710937 23.589844 19.5 38.121094 15.785156 7.777343-1.992187 16.589843-4.246093 26.992187-4.3125 33.855469-.207031 58.210938 9.351563 72.410156 28.449219 8.847657 11.902344 13.007813 26.382812 14.558594 40.667969-1.597656-4.832031-4.175781-9.726563-7.707031-14.542969-4.910156-6.699219-10.027344-11.042969-10.242187-11.226562-2.476563-2.085938-6.019532-2.335938-8.761719-.617188-.226563.144531-5.421875 3.425781-10.945313 8.902344-1.605468-4.628906-4.117187-9.3125-7.496094-13.921875-4.910156-6.695313-10.027343-11.039063-10.242187-11.222657-2.476563-2.089843-6.015625-2.339843-8.757813-.617187-.230468.140625-5.421874 3.425781-10.945312 8.898437-1.609375-4.628906-4.121094-9.308593-7.5-13.917968-4.910156-6.695313-10.023438-11.042969-10.242188-11.222656-2.472656-2.089844-6.015624-2.339844-8.757812-.621094-.703125.441406-16.394531 10.421875-22.613281 25.660156-.167969 0-.335938-.011719-.503907-.011719-.171874 0-.339843.011719-.511718.011719-6.238282-15.246094-21.859375-25.191406-22.605469-25.660156-2.746094-1.71875-6.285156-1.46875-8.761719.621094-.214844.179687-5.332031 4.527343-10.242187 11.222656-3.378907 4.609375-5.886719 9.289062-7.496094 13.917968-5.523437-5.472656-10.714844-8.757812-10.945313-8.898437-2.742187-1.722656-6.285156-1.472656-8.757812.617187-.21875.183594-5.332031 4.527344-10.242188 11.222657-3.378906 4.609375-5.890624 9.292969-7.5 13.921875-5.523437-5.476563-10.714843-8.757813-10.941406-8.902344-2.742187-1.71875-6.285156-1.46875-8.761718.617188-.214844.183593-5.332032 4.527343-10.242188 11.226562-.648438.882812-1.253906 1.769531-1.835938 2.65625-.433593-8.757812-.269531-16.859375.496094-24.28125.425782-4.09375-2.550781-7.753906-6.644531-8.175781-4.09375-.425781-7.753906 2.550781-8.175781 6.644531-1.742188 16.867188-.660156 36.789062 3.21875 59.523438.015625.109374.019531.21875.039062.324218.761719 4.441406 1.648438 9.023438 2.632813 13.707032.019531.078124.035156.152343.050781.230468.960938 4.5625 2.023438 9.234375 3.1875 14.003906.136719.546876.273438 1.101563.410156 1.652344.4375 1.765625.890625 3.546875 1.355469 5.34375.167969.640625.332031 1.277344.5 1.921875.289063 1.085938.582031 2.175781.878906 3.269531-.027343.253907-.042969.515626-.039062.777344l.007812 3.289063c-23.738281 3.265625-42.054687 23.703125-41.980469 48.3125.039063 12.988281 5.136719 25.1875 14.347657 34.34375 5.851562 5.820312 12.929687 9.949219 20.640625 12.1875-.058594 2.039062.179687 4.09375.734375 6.117187.449219 1.644532.859375 3.253906 1.285156 4.875h-103.503906c.421875-1.613281.855469-3.238281 1.304687-4.875 1.546875-5.660156.675782-11.582031-2.457031-16.667968-3.515625-5.703126-9.585937-9.792969-16.660156-11.226563-12.101563-2.449219-24.335938 3.234375-29.089844 13.511719-8.550781 18.484375-15.308594 38.496094-20.09375 59.480468-.914063 4.011719 1.597656 8.003907 5.609375 8.917969 4.015625.914063 8.003906-1.59375 8.917969-5.605469 4.554687-19.972656 10.976562-38.996093 19.089843-56.535156 1.828126-3.957031 7.371094-6.222656 12.609376-5.164062 3.046874.617187 5.570312 2.234375 6.929687 4.4375.667969 1.085937 1.34375 2.820312.769531 4.917968-6.800781 24.847657-10.769531 47.105469-12.089844 67.730469h-19.332031c-24.238281 0-43.957031 19.71875-43.957031 43.957031 0 13.652344 6.257812 25.867188 16.054688 33.9375-.414063 1.195313-.546876 2.507813-.285157 3.839844 4.289063 22.003906 14.066407 40.191406 29.066407 54.050782 10.835937 10.015624 25.035156 18.171874 42.195312 24.234374 6.777344 2.398438 29.953125 8.398438 57.710938 8.398438.945312 0 1.902343-.007812 2.859374-.019531 12.945313-.195313 25.109376-1.734375 36.355469-4.550781h219.03125c.007813 0 .015625.003906.027344.003906.007813 0 .015625-.003906.023437-.003906h93.898438c1.980469 0 3.878906-.785157 5.277344-2.1875 1.398437-1.402344 2.179687-3.304688 2.175781-5.285157zm-293.488281-310.445312c-.644532-2.40625-1.257813-4.792969-1.851563-7.15625-.160156-.632813-.304687-1.253907-.457031-1.882813-.421875-1.707031-.84375-3.417968-1.238281-5.097656-.207031-.882812-.394531-1.746094-.59375-2.617188-.316407-1.390624-.636719-2.78125-.933594-4.148437-.242187-1.125-.46875-2.230469-.703125-3.34375-.222656-1.0625-.449219-2.132813-.660156-3.183594-.050782-.269531-.097656-.527343-.152344-.796875h238.453125c-1.035156 12.160156-3.167969 22.390625-4.589844 28.226563zm101.085937-75.738281c.496094 0 1-.046876 1.503907-.144532.054687-.011718.109374-.03125.164062-.042968 1.402344-.125 2.820312-.191407 4.253906-.191407 21.0625 0 38.589844 13.761719 43.394532 32.992188h-86.789063c4.347656-17.394531 19.109375-30.308594 37.472656-32.613281zm168.253907 132.78125c.046874 16.683593-12.085938 30.601562-28.007813 33.339843l-.164063-66.503906c15.917969 2.652344 28.121094 16.492187 28.171876 33.164063zm-61.058594-123.910157c4.890625 5.425781 11 14.28125 10.40625 22.660157-.023438.359374-.070313.71875-.105469 1.082031h-23.886719c.007813-.917969.035156-1.84375.101563-2.769531.589843-8.378907 7.886719-16.292969 13.484375-20.972657zm-37.445313-16.859375c4.890625 5.425782 11 14.28125 10.410157 22.65625-.445313 6.324219-2.214844 12.277344-4.976563 16.761719-.238281.382813-.429687.78125-.585937 1.183594h-10.03125c-1.382813-7.570313-4.203126-14.578125-8.164063-20.769531 1.128906-7.953126 8.003906-15.367188 13.347656-19.832032zm-37.433593-16.847656c4.734374 5.253906 10.582031 13.710938 10.414062 21.839844-6.070312-4.640625-13.101562-8.128906-20.761719-10.179688 2.875-4.890625 7.113281-8.972656 10.347657-11.660156zm-52.792969.007812c3.238281 2.695313 7.484375 6.785157 10.355469 11.652344-7.660157 2.050782-14.691407 5.539063-20.765626 10.179688-.164062-8.125 5.683594-16.585938 10.410157-21.832032zm-37.449219 16.859376c4.941406 4.105468 12.207031 11.453124 13.371094 19.8125-3.964844 6.191406-6.785156 13.199218-8.164063 20.769531h-9.878906c-.085937-.152344-.167969-.304688-.265625-.449219-3.039062-4.5625-4.972656-10.777344-5.449219-17.496094-.589843-8.367187 5.507813-17.214844 10.386719-22.636718zm-37.441406 16.859374c5.164062 4.292969 12.882812 12.125 13.507812 20.953126.0625.925781.09375 1.851562.101563 2.769531h-23.890625c-.035156-.363281-.082032-.71875-.109375-1.082031-.589844-8.371094 5.507812-17.21875 10.390625-22.640626zm-46.714844 124.894532c-.046875-16.367188 11.636719-30.082032 27.117188-33.175782l.164062 64.359376c-.519531.476562-1.007812.984374-1.480469 1.503906-5.941406-1.425782-11.402343-4.445313-15.847656-8.863282-6.390625-6.351562-9.925781-14.8125-9.953125-23.824218zm29.84375 165.773437c-1.988281 10.578125-7.054688 25.085938-19.882812 34.128907-1.972657 1.390624-4.046876 2.566406-6.1875 3.582031v-46.328125c8.550781-9.230469 18.335937-17.355469 29.140624-24.097656-.082031 11.390624-1.097656 22.242187-3.070312 32.714843zm-92.523438 37.890625c-2.269531-1.050781-4.464843-2.289062-6.550781-3.761718-.421875-.296876-.824219-.621094-1.230469-.9375 2.792969-1.539063 5.398438-3.382813 7.78125-5.46875zm14.902344-40.15625c.070313-1.011718.117188-2.03125.117188-3.058594 0-1.03125-.046875-2.046874-.117188-3.058593v-55.738281h36.652344v49.820312c-14.226562 16.566406-24.972656 36.042969-31.285156 57.234375-1.800782-.179687-3.59375-.402344-5.367188-.691406zm36.652344 12.738282v31.707031c-5.199219.863281-10.550781 1.207031-15.859375 1.335937 3.84375-11.71875 9.199219-22.816406 15.859375-33.042968zm14.902344-39.921876v-34.671874h27.136718c.628907 4.925781 1.109376 9.738281 1.441407 14.457031-10.320313 5.6875-19.890625 12.492187-28.578125 20.214843zm21.949218-63.851562c1.085938 4.859375 2.050782 9.621094 2.886719 14.277344h-116.492187c.835937-4.65625 1.789062-9.414063 2.871094-14.277344zm-115.886718 29.179688h27.480468v25.75c-7.738281-6.785157-17.859374-10.910157-28.9375-10.910157h-.007812c.332031-4.839843.820312-9.785156 1.464844-14.839843zm-35.726563 29.742187h34.269531c15.164063 0 27.644532 11.675781 28.9375 26.507813v5.09375c-1.292968 14.832031-13.773437 26.507812-28.9375 26.507812h-34.269531c-16.023437 0-29.054687-13.035156-29.054687-29.054688 0-16.023437 13.03125-29.054687 29.054687-29.054687zm103.421875 138.59375c-26.679687.398437-49.496094-5.445313-55.382812-7.523437-15.242188-5.386719-27.707032-12.496094-37.046875-21.128907-11.097657-10.257812-18.609375-22.929687-22.835938-38.5625 3.769531 1.054688 7.738281 1.632813 11.84375 1.632813h34.269531c1.621094 0 3.21875-.09375 4.796876-.265625 2.730468 2.96875 5.730468 5.632812 9.003906 7.941406 14.6875 10.351563 31.792968 11.960937 48.09375 12.15625h.179687c16.296875-.195313 33.402344-1.804687 48.089844-12.15625 16.914063-11.921875 23.441406-30.265625 25.941406-43.554687 6.527344-34.675782 3.574219-72.730469-9.289062-119.765626-.578125-2.097656.097656-3.832031.765625-4.917968 1.359375-2.203125 3.882812-3.820313 6.929687-4.4375 5.238281-1.058594 10.777344 1.207031 12.609375 5.164062 13.507813 29.199219 22.136719 61.839844 25.652344 97.007813 3.140625 31.414062 3.050781 71.167969-25.742188 99.960937-11.351562 11.351563-25.695312 19.332032-42.84375 23.902344h-1.449218c-1.617188 0-3.113282.519531-4.332032 1.398438-9.039062 1.9375-18.792968 2.992187-29.253906 3.148437zm88.417969-17.914063c14.453125-14.453124 24.015625-32.699218 28.414063-54.222656 3.386718-16.566406 3.898437-34.917968 1.617187-57.753906-3.679687-36.828125-12.75-71.074219-26.957031-101.785156-4.464844-9.648438-15.515625-15.242188-26.863282-13.867188l-.167968-67.589844h225.242187l.199219 78.257813c.085938 29.230469-11.027344 56.863281-31.335938 78.070313-.03125.03125-.0625.0625-.089843.09375-.472657.492187-.945313.984374-1.425781 1.46875-21.273438 21.402343-49.484376 33.238281-79.433594 33.328124-9.257813.039063-18.378906-1.0625-27.253906-3.269531-.191407-.058593-.390626-.105469-.589844-.152343-4.988282-1.265626-9.898438-2.878907-14.707032-4.839844-3.8125-1.550782-8.160156.277344-9.714843 4.085937-1.550781 3.808594.277343 8.160157 4.085937 9.710938 3.921875 1.601562 7.902344 2.992187 11.929688 4.1875 3.722656 24.558593 16.757812 50.273437 37.097656 72.976562 12.503906 13.957031 26.796875 25.722657 41.898438 34.667969h-148.59375c6.066406-3.898438 11.636718-8.355469 16.648437-13.367188zm0 0" fill="#18191b"/><path d="m324.933594 316.019531h.113281c9.414063-.027343 18.398437-3.5625 25.304687-9.957031 3.015626-2.796875 3.199219-7.507812.402344-10.527344-2.796875-3.019531-7.511718-3.199218-10.53125-.402344-4.152344 3.84375-9.554687 5.96875-15.21875 5.988282-.023437 0-.046875 0-.070312 0-5.640625 0-11.03125-2.09375-15.191406-5.902344-3.035157-2.777344-7.746094-2.566406-10.527344.464844-2.777344 3.035156-2.570313 7.75.464844 10.527344 6.914062 6.328124 15.878906 9.808593 25.253906 9.808593zm0 0" fill="#18191b"/><path d="m367.589844 214.460938c.179687-.039063 18.148437-3.871094 33.867187 1.042968.742188.234375 1.492188.34375 2.226563.34375 3.171875 0 6.113281-2.042968 7.109375-5.230468 1.226562-3.925782-.960938-8.105469-4.886719-9.332032-19.589844-6.128906-40.652344-1.570312-41.539062-1.375-4.011719.894532-6.539063 4.863282-5.652344 8.878906.886718 4.011719 4.855468 6.550782 8.875 5.671876zm0 0" fill="#18191b"/><path d="m294.816406 208.800781c.890625-4.015625-1.640625-7.996093-5.65625-8.890625-.886718-.195312-21.945312-4.753906-41.539062 1.375-3.925782 1.226563-6.113282 5.40625-4.886719 9.332032.996094 3.1875 3.9375 5.230468 7.109375 5.230468.734375 0 1.484375-.109375 2.226562-.34375 15.667969-4.902344 33.582032-1.105468 33.863282-1.042968 4.023437.886718 7.992187-1.648438 8.882812-5.660157zm0 0" fill="#18191b"/></svg>